<svg xmlns="http://www.w3.org/2000/svg" width="250" height="250"><polyline stroke="orange" stroke-width="1" points="95 100 93.54406010667233 95.85891312769785 90.45219176592592 91.20762064969782 89.72348804627356 88.11233747180704 86.38218884877865 86.25533446058635 82.16023419075889 83.4722566458714 79.90000040731626 81.20579177343389 76.25720446995446 81.2069168547624 75.60366911390267 79.4019612809262 71.06004425455606 79.58166750723565 71.26998928334332 78.9211658378942 70.56871793132841 77.69875179523086 70.46384014023646 76.47069938321368 70.1613937099565 75.19407583938839 69.99808612388306 73.94736507301343 69.56587177207801 72.72945264549043 68.39442948886457 71.74771712528795 67.35383210276615 70.71260738010514 66.14951679028381 69.89317470916733 66.14951679028381 69.89317470916733 63.390893945457066 69.89317470916733 63.390893945457066 67.13455186434058 60.63227110063032 67.13455186434058 57.87364825580357 67.13455186434058 57.87364825580357 64.37592901951383 57.87364825580357 61.61730617468709 57.87364825580357 58.85868332986034 56.03633021497404 58.75467865683468 56.20006515556538 54.45943912197911 52.85511937270737 49.930463321728844 50.71166988554031 44.80911524315257 46.52136033498625 42.33586717683348 42.78589381103385 38.921121521819515 38.422924111358064 37.51835090413767 39.05988158674814 34.166588936380656 38.71767799143241 29.818620495415384 39.47466936977009 26.042018323495526 36.51709806064515 25.987073265556973 32.70646074458556 23.07353268347817 31.056495976831567 21.77468567846647 28.95580948920065 21.904231624972926 26.223351164670184 22.352242262632597 23.983530657631228 23.240307865688763 20.60482352184306 20.872557656339694 18.045931002921815 20.458056485041812 14.736538434806578 17.25330771087392 13.05711902536675 16.795601755093713 10.967245339703489 16.386164158818858 9.738948899413746 15.669121552793559 9.359531294659625 9.483985773403562 4.106301754016508 6.54417505789864 3.928828149811467 3.4829993141631506 2.500931004438568 2.4462025695110245 1.5614040733076167 0.9047699277384686 0 0 200 0 198.6450127295207 3.05122649113921 194.36073980245075 6.932424719372759 193.63557092388305 9.40499432677815 191.90304567317455 12.438737090592118 189.64775162074744 14.484217108286789 188.909587761551 17.87293241639007 186.44042637368165 20.98610923869856 184.67977784123576 25.27681943995776 180.90711120941893 28.34193966522001 178.50026966341642 29.66661217837123 175.1640446496923 26.62818119725007 171.47161299842656 27.18017921592998 169.91185543549915 27.65211711706593 168.98091616537468 27.900409863637385 167.7043127674215 28.173170496414528 165.93939677142535 30.77898939122292 161.03892483840224 30.19072848946418 156.39725806804023 32.22924443196988 156.39725806804023 32.22924443196988 156.39725806804023 34.98786727679663 156.39725806804023 37.746490121623374 156.39725806804023 40.50511296645012 156.39725806804023 43.26373581127687 156.39725806804023 46.02235865610361 156.39725806804023 48.78098150093036 158.72271601607883 50.33728790197737 158.17020333395453 50.945837080264305 156.88730611462987 52.55746613082388 155.6852356247605 52.84183127222053 154.50042876359984 55.741675060770085 153.1771456692596 57.822047008030296 152.32380354350002 60.82021249044728 151.1200719075666 61.620641773818875 148.86779181607247 63.69684592345634 147.417953506446 65.04486125400238 147.417953506446 65.04486125400238 144.65933066161926 65.04486125400238 144.65933066161926 67.80348409882913 141.90070781679253 67.80348409882913 141.90070781679253 70.56210694365588 139.1420849719658 70.56210694365588 136.38346212713907 70.56210694365588 133.62483928231234 70.56210694365588 130.8662164374856 70.56210694365588 128.10759359265887 70.56210694365588 125.34897074783213 70.56210694365588 123.41430395401444 72.43437285888658 121.33516300263983 77.99562517200773 119.52064014075486 78.99247462435727 118.16801864992222 86.18683884835062 115.70599863991097 89.22432256122914 113.35686172565032 91.30517262766094 109.81515557749316 94.412050296025 107.91173412902354 96.88754086977009 106.64457229997002 98.15685765643214 105 100 95 100"/><polyline stroke="orange" stroke-width="1" points="101.25 100.0 101.25 95.0 98.75 95.0 98.75 90.0 101.25 90.0 101.25 85.0 98.75 85.0 98.75 80.0 101.25 80.0 101.25 75.0 98.75 75.0 98.75 70.0 101.25 70.0 101.25 65.0 98.75 65.0 98.75 60.0 101.25 60.0 101.25 55.0 98.75 55.0 98.75 50.0 101.25 50.0 101.25 45.0 98.75 45.0 98.75 40.0 101.25 40.0 101.25 35.0 98.75 35.0 98.75 30.0 101.25 30.0 101.25 25.0 98.75 25.0 98.75 20.0 101.25 20.0 101.25 15.0 98.75 15.0 98.75 10.0 101.25 10.0 101.25 5.0 98.75 5.0 98.75 0.0"/></svg>
